<svg width="143" height="48" viewBox="0 0 143 48" fill="none" xmlns="http://www.w3.org/2000/svg">
<path d="M49.6725 32.0027L41.0325 29.0145C40.725 28.9082 40.0875 28.7688 39.3675 29.0145L30.7275 32.0027C29.925 32.2816 29.4 32.9324 29.4 33.6562C29.4 41.0672 34.5525 46.1937 39.3675 47.8605C40.0875 48.1063 40.7175 47.9668 41.0325 47.8605C44.88 46.5324 51 41.9238 51 33.6562C51 32.9324 50.475 32.2816 49.6725 32.0027ZM40.2 44.7062V32.1488L47.3625 34.6258C46.9425 40.4098 42.795 43.6172 40.2 44.7062ZM19.8 31C25.1025 31 29.4 27.1949 29.4 22.5C29.4 17.8051 25.1025 14 19.8 14C14.4975 14 10.2 17.8051 10.2 22.5C10.2 27.1949 14.4975 31 19.8 31ZM27 33.6562C27 33.4902 27.06 33.3375 27.0825 33.1781C26.895 33.1715 26.715 33.125 26.52 33.125H25.2675C23.6025 33.8023 21.75 34.1875 19.8 34.1875C17.85 34.1875 16.005 33.8023 14.3325 33.125H13.08C7.515 33.125 3 37.1227 3 42.05V44.8125C3 46.5723 4.6125 48 6.6 48H33C33.51 48 33.9975 47.9004 34.44 47.7344C30.39 44.8855 27 39.9848 27 33.6562Z" fill="white"/>
<path d="M18.2151 2.71786L9.34073 3.70767C8.85715 3.7616 8.41365 3.96118 8.0754 4.27706L1.86292 10.0763C1.33863 10.5656 1.82213 11.4391 2.57101 11.3555L4.11814 11.1829C4.03446 11.6829 4.10697 12.2141 4.36306 12.7165C4.18838 12.9885 4.15973 13.3505 4.3444 13.6841C4.51183 13.9866 4.80631 14.172 5.1176 14.2352L6.2115 17.7693C6.30663 18.0766 6.65939 18.2501 6.93604 18.1256L8.45341 17.4428C8.73032 17.3182 8.78861 16.9597 8.57341 16.7064L6.09871 13.7937C6.22984 13.5314 6.24257 13.2078 6.07513 12.9053C5.89543 12.5807 5.57011 12.3878 5.2343 12.3419C5.02157 11.9112 5.02299 11.4452 5.22349 11.0598L11.4455 10.366C11.7337 10.3337 12.2576 10.2196 12.7109 9.79657L18.9234 3.99734C19.4478 3.50761 18.9644 2.63442 18.2151 2.71786ZM13.4402 10.5405C12.8047 11.1335 12.0721 11.2935 11.6665 11.3387L7.05278 11.8534L8.43155 15.2095C8.9806 16.2014 11.7502 15.9593 14.6178 14.6688C17.4854 13.3784 19.365 11.5285 18.816 10.5366L16.6701 7.52531L13.4402 10.5405Z" fill="white"/>
<path d="M63.1172 29.7148C62.8438 30.0664 62.543 30.3945 62.2148 30.6992C61.8945 31.0039 61.543 31.2695 61.1602 31.4961C60.7852 31.7227 60.3867 31.9023 59.9648 32.0352C59.543 32.168 59.1055 32.2344 58.6523 32.2344C58.0742 32.2344 57.543 32.1328 57.0586 31.9297C56.5742 31.7188 56.1562 31.4336 55.8047 31.0742C55.4531 30.707 55.1797 30.2773 54.9844 29.7852C54.7891 29.2852 54.6914 28.75 54.6914 28.1797C54.6914 27.7109 54.7578 27.25 54.8906 26.7969C55.0234 26.3438 55.2109 25.918 55.4531 25.5195C55.6953 25.1211 55.9805 24.7539 56.3086 24.418C56.6445 24.0742 57.0117 23.7812 57.4102 23.5391C57.8086 23.2969 58.2305 23.1094 58.6758 22.9766C59.1211 22.8359 59.5781 22.7656 60.0469 22.7656C60.375 22.7656 60.6836 22.8047 60.9727 22.8828C61.2695 22.9609 61.5312 23.0859 61.7578 23.2578C61.9844 23.4219 62.1641 23.6367 62.2969 23.9023C62.4297 24.1602 62.4961 24.4688 62.4961 24.8281C62.4961 25.125 62.4062 25.4375 62.2266 25.7656C62.0547 26.0938 61.8242 26.4219 61.5352 26.75C61.2539 27.0781 60.9336 27.4023 60.5742 27.7227C60.2148 28.0352 59.8477 28.3281 59.4727 28.6016C59.1055 28.8672 58.75 29.1016 58.4062 29.3047C58.0625 29.5078 57.7617 29.6641 57.5039 29.7734C57.793 30.1328 58.1289 30.4258 58.5117 30.6523C58.8945 30.8789 59.3008 30.9922 59.7305 30.9922C60.0039 30.9922 60.2812 30.9414 60.5625 30.8398C60.8438 30.7305 61.1133 30.5938 61.3711 30.4297C61.6367 30.2656 61.8867 30.0859 62.1211 29.8906C62.3633 29.6953 62.5781 29.5117 62.7656 29.3398L63.1172 29.7148ZM60.293 25.2617C60.293 25.082 60.2617 24.9102 60.1992 24.7461C60.1445 24.582 60.0625 24.4414 59.9531 24.3242C59.8438 24.1992 59.7109 24.1016 59.5547 24.0312C59.4062 23.9531 59.2344 23.9141 59.0391 23.9141C58.6875 23.9141 58.3633 24.0391 58.0664 24.2891C57.7695 24.5312 57.5117 24.832 57.293 25.1914C57.082 25.5508 56.9141 25.9336 56.7891 26.3398C56.6719 26.7383 56.6133 27.0898 56.6133 27.3945C56.6133 27.6914 56.6602 27.9961 56.7539 28.3086C56.8477 28.6211 56.9766 28.9219 57.1406 29.2109C57.4531 29.0391 57.793 28.8008 58.1602 28.4961C58.5273 28.1914 58.8672 27.8594 59.1797 27.5C59.5 27.1328 59.7656 26.7539 59.9766 26.3633C60.1875 25.9727 60.293 25.6055 60.293 25.2617ZM74.0508 30.6055C73.957 30.8086 73.8359 31 73.6875 31.1797C73.5391 31.3594 73.375 31.5195 73.1953 31.6602C73.0156 31.8008 72.8164 31.9141 72.5977 32C72.3867 32.0781 72.168 32.1172 71.9414 32.1172C71.3242 32.1172 70.875 31.9492 70.5938 31.6133C70.3203 31.2695 70.1836 30.8047 70.1836 30.2188V30.0078C70.0508 30.2734 69.8984 30.5391 69.7266 30.8047C69.5547 31.0703 69.3555 31.3086 69.1289 31.5195C68.9102 31.7305 68.6602 31.9023 68.3789 32.0352C68.1055 32.168 67.7969 32.2344 67.4531 32.2344C66.9297 32.2344 66.4688 32.1328 66.0703 31.9297C65.6797 31.7188 65.3516 31.4414 65.0859 31.0977C64.8203 30.7461 64.6172 30.3398 64.4766 29.8789C64.3438 29.418 64.2773 28.9336 64.2773 28.4258C64.2773 27.7695 64.3789 27.1094 64.582 26.4453C64.7852 25.7812 65.082 25.1797 65.4727 24.6406C65.8633 24.1016 66.3438 23.6641 66.9141 23.3281C67.4844 22.9844 68.1367 22.8125 68.8711 22.8125C69.3242 22.8125 69.7617 22.9219 70.1836 23.1406V15.9453L72.3516 15.1953V30.2773C72.3516 30.4336 72.3867 30.5781 72.457 30.7109C72.5352 30.8359 72.6602 30.8984 72.832 30.8984C73.0117 30.8984 73.1797 30.8281 73.3359 30.6875C73.4922 30.5391 73.6172 30.3906 73.7109 30.2422L74.0508 30.6055ZM70.1836 27.0781V24.582C70.0039 24.4023 69.8008 24.2539 69.5742 24.1367C69.3555 24.0195 69.1133 23.9609 68.8477 23.9609C68.3867 23.9609 67.9961 24.0859 67.6758 24.3359C67.3555 24.5859 67.0938 24.8984 66.8906 25.2734C66.6875 25.6484 66.5391 26.0547 66.4453 26.4922C66.3516 26.9219 66.3047 27.3242 66.3047 27.6992C66.3047 27.9961 66.332 28.332 66.3867 28.707C66.4492 29.0742 66.5508 29.4219 66.6914 29.75C66.8398 30.0703 67.0312 30.3438 67.2656 30.5703C67.5078 30.7891 67.8086 30.8984 68.168 30.8984C68.457 30.8984 68.707 30.8359 68.918 30.7109C69.1367 30.5781 69.3203 30.4102 69.4688 30.207C69.6172 29.9961 69.7383 29.7578 69.832 29.4922C69.9258 29.2188 69.9961 28.9414 70.043 28.6602C70.0977 28.3789 70.1328 28.1016 70.1484 27.8281C70.1719 27.5469 70.1836 27.2969 70.1836 27.0781ZM84.8789 30.6289C84.6992 31.0117 84.4883 31.3047 84.2461 31.5078C84.0039 31.7109 83.7734 31.8594 83.5547 31.9531C83.2969 32.0625 83.0352 32.125 82.7695 32.1406C82.418 32.1406 82.1289 32.0859 81.9023 31.9766C81.6836 31.8672 81.5078 31.7227 81.375 31.543C81.2422 31.3633 81.1484 31.1602 81.0938 30.9336C81.0469 30.707 81.0234 30.4766 81.0234 30.2422V26.5039C80.9609 26.7852 80.8789 27.1211 80.7773 27.5117C80.6836 27.9023 80.5664 28.3125 80.4258 28.7422C80.2852 29.1641 80.1211 29.5859 79.9336 30.0078C79.7461 30.4219 79.5273 30.793 79.2773 31.1211C79.0352 31.4492 78.7578 31.7188 78.4453 31.9297C78.1406 32.1328 77.7969 32.2344 77.4141 32.2344C77.0938 32.2344 76.8398 32.1719 76.6523 32.0469C76.4727 31.9297 76.3359 31.7617 76.2422 31.543C76.1562 31.3164 76.1016 31.0508 76.0781 30.7461C76.0625 30.4336 76.0547 30.0898 76.0547 29.7148V24.6289C76.0547 24.4414 76.0117 24.293 75.9258 24.1836C75.8398 24.0742 75.7266 24.0195 75.5859 24.0195C75.4531 24.0117 75.3047 24.0586 75.1406 24.1602C74.9766 24.2617 74.8164 24.4258 74.6602 24.6523L74.3438 24.3008C74.5234 23.9258 74.7305 23.6367 74.9648 23.4336C75.1992 23.2227 75.4297 23.0703 75.6562 22.9766C75.9141 22.8672 76.1797 22.8047 76.4531 22.7891C76.8047 22.7891 77.0898 22.8438 77.3086 22.9531C77.5352 23.0625 77.7109 23.207 77.8359 23.3867C77.9688 23.5586 78.0586 23.7578 78.1055 23.9844C78.1602 24.2109 78.1875 24.4414 78.1875 24.6758V29.5273C78.1875 29.832 78.2422 30.0312 78.3516 30.125C78.4609 30.2188 78.6016 30.207 78.7734 30.0898C78.9531 29.9648 79.1484 29.7422 79.3594 29.4219C79.5781 29.0938 79.7969 28.6641 80.0156 28.1328C80.1562 27.625 80.293 27.1016 80.4258 26.5625C80.5352 26.1016 80.6445 25.5938 80.7539 25.0391C80.8711 24.4844 80.9609 23.9492 81.0234 23.4336L83.1797 22.6836V30.3008C83.1797 30.4883 83.2227 30.6367 83.3086 30.7461C83.3945 30.8555 83.5039 30.9141 83.6367 30.9219C83.7695 30.9219 83.9141 30.8711 84.0703 30.7695C84.2344 30.668 84.3945 30.5039 84.5508 30.2773L84.8789 30.6289ZM101.262 30.3945C101.145 30.6211 100.996 30.8398 100.816 31.0508C100.645 31.2617 100.445 31.4492 100.219 31.6133C100 31.7695 99.7656 31.8984 99.5156 32C99.2656 32.0938 99.0078 32.1406 98.7422 32.1406C98.3047 32.1406 97.9219 32.0586 97.5938 31.8945C97.2734 31.7305 97 31.5117 96.7734 31.2383C96.5547 30.957 96.3906 30.6367 96.2812 30.2773C96.1719 29.918 96.1172 29.5391 96.1172 29.1406V24.6055C96.0078 25.1055 95.8828 25.6445 95.7422 26.2227C95.6016 26.793 95.4297 27.3633 95.2266 27.9336C95.0234 28.4961 94.7852 29.0391 94.5117 29.5625C94.2383 30.0859 93.9141 30.5508 93.5391 30.957C93.1719 31.3555 92.75 31.6758 92.2734 31.918C91.7969 32.1523 91.2539 32.2695 90.6445 32.2695C89.9023 32.2695 89.2383 32.1289 88.6523 31.8477C88.0664 31.5664 87.5664 31.1797 87.1523 30.6875C86.7461 30.1953 86.4336 29.6133 86.2148 28.9414C86.0039 28.2617 85.8984 27.5273 85.8984 26.7383C85.8984 25.8008 86.0469 24.8633 86.3438 23.9258C86.6406 22.9805 87.0469 22.0742 87.5625 21.207C88.0859 20.3398 88.7031 19.5352 89.4141 18.793C90.1328 18.0508 90.9141 17.4062 91.7578 16.8594C92.6016 16.3125 93.4883 15.8867 94.418 15.582C95.3555 15.2773 96.3008 15.1328 97.2539 15.1484H97.3945V15.6758C96.5742 15.7148 95.7852 15.8945 95.0273 16.2148C94.2695 16.5273 93.5586 16.9414 92.8945 17.457C92.2383 17.9648 91.6367 18.5547 91.0898 19.2266C90.543 19.8984 90.0742 20.6133 89.6836 21.3711C89.3008 22.1289 89 22.9102 88.7812 23.7148C88.5703 24.5195 88.4648 25.3125 88.4648 26.0938C88.4648 26.3984 88.4844 26.7266 88.5234 27.0781C88.5625 27.4219 88.6289 27.7695 88.7227 28.1211C88.8164 28.4648 88.9375 28.7969 89.0859 29.1172C89.2344 29.4297 89.418 29.7109 89.6367 29.9609C89.8633 30.2031 90.125 30.3984 90.4219 30.5469C90.7188 30.6875 91.0586 30.7578 91.4414 30.7578C91.9023 30.7578 92.3203 30.6172 92.6953 30.3359C93.0703 30.0547 93.4102 29.6758 93.7148 29.1992C94.0195 28.7227 94.2891 28.168 94.5234 27.5352C94.7656 26.9023 94.9766 26.2344 95.1562 25.5312C95.3359 24.8281 95.4844 24.1133 95.6016 23.3867C95.7266 22.6523 95.8242 21.9492 95.8945 21.2773C95.9727 20.6055 96.0273 19.9844 96.0586 19.4141C96.0977 18.8359 96.1172 18.3516 96.1172 17.9609L98.543 17.0703V29.5273C98.543 29.6836 98.5586 29.8398 98.5898 29.9961C98.6211 30.1523 98.6758 30.2969 98.7539 30.4297C98.832 30.5547 98.9297 30.6562 99.0469 30.7344C99.1719 30.8125 99.3242 30.8516 99.5039 30.8516C99.7773 30.8516 100.035 30.7695 100.277 30.6055C100.52 30.4414 100.719 30.2578 100.875 30.0547L101.262 30.3945ZM111.738 30.6055C111.645 30.8086 111.523 31 111.375 31.1797C111.227 31.3594 111.062 31.5195 110.883 31.6602C110.703 31.8008 110.504 31.9141 110.285 32C110.074 32.0781 109.855 32.1172 109.629 32.1172C109.012 32.1172 108.562 31.9492 108.281 31.6133C108.008 31.2695 107.871 30.8047 107.871 30.2188V30.0078C107.738 30.2734 107.586 30.5391 107.414 30.8047C107.242 31.0703 107.043 31.3086 106.816 31.5195C106.598 31.7305 106.348 31.9023 106.066 32.0352C105.793 32.168 105.484 32.2344 105.141 32.2344C104.617 32.2344 104.156 32.1328 103.758 31.9297C103.367 31.7188 103.039 31.4414 102.773 31.0977C102.508 30.7461 102.305 30.3398 102.164 29.8789C102.031 29.418 101.965 28.9336 101.965 28.4258C101.965 27.7695 102.066 27.1094 102.27 26.4453C102.473 25.7812 102.77 25.1797 103.16 24.6406C103.551 24.1016 104.031 23.6641 104.602 23.3281C105.172 22.9844 105.824 22.8125 106.559 22.8125C107.012 22.8125 107.449 22.9219 107.871 23.1406V15.9453L110.039 15.1953V30.2773C110.039 30.4336 110.074 30.5781 110.145 30.7109C110.223 30.8359 110.348 30.8984 110.52 30.8984C110.699 30.8984 110.867 30.8281 111.023 30.6875C111.18 30.5391 111.305 30.3906 111.398 30.2422L111.738 30.6055ZM107.871 27.0781V24.582C107.691 24.4023 107.488 24.2539 107.262 24.1367C107.043 24.0195 106.801 23.9609 106.535 23.9609C106.074 23.9609 105.684 24.0859 105.363 24.3359C105.043 24.5859 104.781 24.8984 104.578 25.2734C104.375 25.6484 104.227 26.0547 104.133 26.4922C104.039 26.9219 103.992 27.3242 103.992 27.6992C103.992 27.9961 104.02 28.332 104.074 28.707C104.137 29.0742 104.238 29.4219 104.379 29.75C104.527 30.0703 104.719 30.3438 104.953 30.5703C105.195 30.7891 105.496 30.8984 105.855 30.8984C106.145 30.8984 106.395 30.8359 106.605 30.7109C106.824 30.5781 107.008 30.4102 107.156 30.207C107.305 29.9961 107.426 29.7578 107.52 29.4922C107.613 29.2188 107.684 28.9414 107.73 28.6602C107.785 28.3789 107.82 28.1016 107.836 27.8281C107.859 27.5469 107.871 27.2969 107.871 27.0781ZM126.07 30.6289C125.891 31.0117 125.68 31.3047 125.438 31.5078C125.195 31.7109 124.965 31.8594 124.746 31.9531C124.488 32.0625 124.227 32.125 123.961 32.1406C123.609 32.1406 123.32 32.0859 123.094 31.9766C122.875 31.8672 122.699 31.7227 122.566 31.543C122.434 31.3633 122.34 31.1602 122.285 30.9336C122.238 30.707 122.215 30.4766 122.215 30.2422V25.332C122.215 25.207 122.191 25.0977 122.145 25.0039C122.098 24.9023 122.035 24.8438 121.957 24.8281C121.879 24.8125 121.785 24.8516 121.676 24.9453C121.566 25.0391 121.449 25.207 121.324 25.4492C121.113 26.0742 120.922 26.7305 120.75 27.418C120.602 28.0117 120.465 28.6836 120.34 29.4336C120.223 30.1758 120.156 30.9414 120.141 31.7305L117.984 32.4805V25.332C117.984 25.207 117.961 25.0977 117.914 25.0039C117.867 24.9023 117.801 24.8438 117.715 24.8281C117.637 24.8125 117.543 24.8516 117.434 24.9453C117.324 25.0391 117.211 25.207 117.094 25.4492C116.859 26.1055 116.656 26.7891 116.484 27.5C116.406 27.8047 116.332 28.1289 116.262 28.4727C116.191 28.8164 116.129 29.1719 116.074 29.5391C116.027 29.8984 115.988 30.2656 115.957 30.6406C115.926 31.0078 115.914 31.3711 115.922 31.7305L113.789 32.4805V24.6055C113.789 24.418 113.746 24.2695 113.66 24.1602C113.574 24.0508 113.461 23.9961 113.32 23.9961C113.188 23.9883 113.039 24.0352 112.875 24.1367C112.711 24.2383 112.551 24.4023 112.395 24.6289L112.078 24.2773C112.258 23.9023 112.465 23.6133 112.699 23.4102C112.941 23.1992 113.176 23.0469 113.402 22.9531C113.66 22.8438 113.926 22.7812 114.199 22.7656C114.543 22.7656 114.824 22.8203 115.043 22.9297C115.27 23.0391 115.445 23.1836 115.57 23.3633C115.703 23.5352 115.793 23.7344 115.84 23.9609C115.895 24.1875 115.922 24.418 115.922 24.6523V27.125C116.062 26.4219 116.273 25.8008 116.555 25.2617C116.836 24.7227 117.129 24.2695 117.434 23.9023C117.746 23.5273 118.051 23.2461 118.348 23.0586C118.645 22.8633 118.883 22.7656 119.062 22.7656C119.289 22.7656 119.473 22.8047 119.613 22.8828C119.754 22.9531 119.863 23.0625 119.941 23.2109C120.02 23.3594 120.07 23.543 120.094 23.7617C120.125 23.9727 120.141 24.2227 120.141 24.5117V27.125C120.289 26.4219 120.5 25.8008 120.773 25.2617C121.055 24.7227 121.352 24.2695 121.664 23.9023C121.977 23.5273 122.281 23.2461 122.578 23.0586C122.875 22.8633 123.113 22.7656 123.293 22.7656C123.738 22.7656 124.027 22.9141 124.16 23.2109C124.301 23.5 124.371 23.9336 124.371 24.5117V30.3008C124.371 30.4883 124.414 30.6367 124.5 30.7461C124.586 30.8555 124.695 30.9141 124.828 30.9219C124.961 30.9219 125.105 30.8711 125.262 30.7695C125.426 30.668 125.586 30.5039 125.742 30.2773L126.07 30.6289ZM129.879 16.707L129.258 20.9844L128.109 21.3477L127.406 17.5508L129.879 16.707ZM131.496 30.6289C131.316 31.0117 131.105 31.3047 130.863 31.5078C130.629 31.7109 130.402 31.8594 130.184 31.9531C129.926 32.0625 129.664 32.125 129.398 32.1406C129.055 32.1406 128.77 32.0859 128.543 31.9766C128.316 31.8672 128.137 31.7227 128.004 31.543C127.871 31.3633 127.777 31.1602 127.723 30.9336C127.676 30.707 127.652 30.4766 127.652 30.2422V23.668L129.809 22.9297V30.3008C129.809 30.4883 129.852 30.6367 129.938 30.7461C130.023 30.8555 130.133 30.9141 130.266 30.9219C130.406 30.9219 130.555 30.8711 130.711 30.7695C130.875 30.668 131.031 30.5039 131.18 30.2773L131.496 30.6289ZM142.641 30.6289C142.547 30.832 142.426 31.0234 142.277 31.2031C142.129 31.3828 141.961 31.543 141.773 31.6836C141.594 31.8242 141.398 31.9336 141.188 32.0117C140.977 32.0977 140.758 32.1406 140.531 32.1406C139.914 32.1406 139.465 31.9727 139.184 31.6367C138.91 31.293 138.773 30.8281 138.773 30.2422V25.4727C138.773 25.418 138.77 25.3555 138.762 25.2852C138.762 25.207 138.75 25.1367 138.727 25.0742C138.703 25.0039 138.672 24.9453 138.633 24.8984C138.594 24.8516 138.539 24.8281 138.469 24.8281C138.25 24.8281 138.027 24.9609 137.801 25.2266C137.582 25.4922 137.367 25.8359 137.156 26.2578C136.953 26.6797 136.762 27.1523 136.582 27.6758C136.41 28.1992 136.258 28.7188 136.125 29.2344C135.992 29.7422 135.887 30.2188 135.809 30.6641C135.738 31.1094 135.703 31.4648 135.703 31.7305L133.57 32.4805V24.6055C133.57 24.4492 133.531 24.3086 133.453 24.1836C133.375 24.0508 133.254 23.9844 133.09 23.9844C132.895 23.9844 132.715 24.0586 132.551 24.207C132.395 24.3477 132.27 24.4883 132.176 24.6289L131.859 24.2773C131.953 24.082 132.07 23.8945 132.211 23.7148C132.359 23.5273 132.523 23.3633 132.703 23.2227C132.891 23.082 133.09 22.9727 133.301 22.8945C133.52 22.8086 133.746 22.7656 133.98 22.7656C134.59 22.7656 135.027 22.9375 135.293 23.2812C135.566 23.6172 135.703 24.0742 135.703 24.6523V28.4727C135.773 28.1523 135.867 27.7891 135.984 27.3828C136.109 26.9688 136.258 26.5508 136.43 26.1289C136.602 25.707 136.793 25.2969 137.004 24.8984C137.223 24.4922 137.461 24.1328 137.719 23.8203C137.977 23.5 138.258 23.2461 138.562 23.0586C138.867 22.8633 139.195 22.7656 139.547 22.7656C139.914 22.7656 140.191 22.8477 140.379 23.0117C140.566 23.168 140.699 23.3711 140.777 23.6211C140.863 23.8633 140.91 24.1328 140.918 24.4297C140.926 24.7266 140.93 25.0117 140.93 25.2852V30.3008C140.93 30.457 140.969 30.6016 141.047 30.7344C141.125 30.8594 141.246 30.9219 141.41 30.9219C141.59 30.9219 141.758 30.8516 141.914 30.7109C142.078 30.5625 142.207 30.418 142.301 30.2773L142.641 30.6289Z" fill="white"/>
</svg>
