<svg width="24" height="24" viewBox="0 0 24 24" fill="none" xmlns="http://www.w3.org/2000/svg">
<path d="M0.581827 6.93869L11.5007 11.8919C11.8195 12.0367 12.1799 12.0367 12.4987 11.8919L23.4176 6.93869C24.1934 6.58666 24.1934 5.41433 23.4176 5.06231L12.4992 0.10863C12.3425 0.0370482 12.1724 0 12.0002 0C11.828 0 11.6578 0.0370482 11.5012 0.10863L0.581827 5.06184C-0.193942 5.41387 -0.193942 6.58666 0.581827 6.93869ZM23.4181 11.0768L20.6951 9.84255L13.1184 13.277C12.764 13.4378 12.3876 13.5194 11.9999 13.5194C11.6123 13.5194 11.2364 13.4378 10.8815 13.277L3.30523 9.84255L0.581827 11.0768C-0.193942 11.4283 -0.193942 12.6002 0.581827 12.9517L11.5007 17.9012C11.8195 18.0456 12.1799 18.0456 12.4987 17.9012L23.4181 12.9517C24.1938 12.6002 24.1938 11.4283 23.4181 11.0768ZM23.4181 17.0673L20.7054 15.8378L13.1184 19.2769C12.764 19.4377 12.3876 19.5193 11.9999 19.5193C11.6123 19.5193 11.2364 19.4377 10.8815 19.2769L3.29491 15.8378L0.581827 17.0673C-0.193942 17.4188 -0.193942 18.5907 0.581827 18.9423L11.5007 23.8917C11.8195 24.0361 12.1799 24.0361 12.4987 23.8917L23.4181 18.9423C24.1938 18.5907 24.1938 17.4188 23.4181 17.0673Z" fill="black"/>
</svg>
