<svg width="35" height="24" viewBox="0 0 35 24" fill="none" xmlns="http://www.w3.org/2000/svg">
<path d="M5.14286 10.2857C7.03393 10.2857 8.57143 8.74821 8.57143 6.85714C8.57143 4.96607 7.03393 3.42857 5.14286 3.42857C3.25179 3.42857 1.71429 4.96607 1.71429 6.85714C1.71429 8.74821 3.25179 10.2857 5.14286 10.2857ZM29.1429 10.2857C31.0339 10.2857 32.5714 8.74821 32.5714 6.85714C32.5714 4.96607 31.0339 3.42857 29.1429 3.42857C27.2518 3.42857 25.7143 4.96607 25.7143 6.85714C25.7143 8.74821 27.2518 10.2857 29.1429 10.2857ZM30.8571 12H27.4286C26.4857 12 25.6339 12.3804 25.0125 12.9964C27.1714 14.1804 28.7036 16.3179 29.0357 18.8571H32.5714C33.5196 18.8571 34.2857 18.0911 34.2857 17.1429V15.4286C34.2857 13.5375 32.7482 12 30.8571 12ZM17.1429 12C20.4589 12 23.1429 9.31607 23.1429 6C23.1429 2.68393 20.4589 0 17.1429 0C13.8268 0 11.1429 2.68393 11.1429 6C11.1429 9.31607 13.8268 12 17.1429 12ZM21.2571 13.7143H20.8125C19.6982 14.25 18.4607 14.5714 17.1429 14.5714C15.825 14.5714 14.5929 14.25 13.4732 13.7143H13.0286C9.62143 13.7143 6.85714 16.4786 6.85714 19.8857V21.4286C6.85714 22.8482 8.00893 24 9.42857 24H24.8571C26.2768 24 27.4286 22.8482 27.4286 21.4286V19.8857C27.4286 16.4786 24.6643 13.7143 21.2571 13.7143ZM9.27321 12.9964C8.65179 12.3804 7.8 12 6.85714 12H3.42857C1.5375 12 0 13.5375 0 15.4286V17.1429C0 18.0911 0.766071 18.8571 1.71429 18.8571H5.24464C5.58214 16.3179 7.11429 14.1804 9.27321 12.9964Z" fill="black"/>
</svg>
